<?xml version="1.0" encoding="UTF-8" standalone="no"?>
<svg
   role="img"
   width="1000mm"
   height="1000mm"
   viewBox="0 0 1000 1000"
   style="max-width:1.6em; height: auto;"
   version="1.1"
   id="svg34"
   sodipodi:docname="symfony.svg"
   inkscape:version="1.2 (1:1.2.1+202207142221+cd75a1ee6d)"
   xmlns:inkscape="http://www.inkscape.org/namespaces/inkscape"
   xmlns:sodipodi="http://sodipodi.sourceforge.net/DTD/sodipodi-0.dtd"
   xmlns="http://www.w3.org/2000/svg"
   xmlns:svg="http://www.w3.org/2000/svg">
  <defs
     id="defs38" />
  <sodipodi:namedview
     id="namedview36"
     pagecolor="#ffffff"
     bordercolor="#666666"
     borderopacity="1.0"
     inkscape:showpageshadow="2"
     inkscape:pageopacity="0.0"
     inkscape:pagecheckerboard="0"
     inkscape:deskcolor="#d1d1d1"
     inkscape:document-units="mm"
     showgrid="false"
     inkscape:zoom="0.21854583"
     inkscape:cx="1889.7638"
     inkscape:cy="1892.0516"
     inkscape:window-width="1920"
     inkscape:window-height="1009"
     inkscape:window-x="0"
     inkscape:window-y="34"
     inkscape:window-maximized="1"
     inkscape:current-layer="svg34" />
  <path
     id="path"
     style="opacity:1;vector-effect:none;fill:#e6e6e6;fill-opacity:1"
     d="m 503.20095,1.5494506 c -276,0 -500.0000033,223.9999994 -500.0000033,499.9999994 0,276 224.0000033,500.00005 500.0000033,500.00005 276,0 499.99995,-224.00005 499.99995,-500.00005 0,-276 -223.99995,-499.9999994 -499.99995,-499.9999994 0,0 0,0 0,0 m 309,242.9999994 c 4,32 -33,59 -62,42 -36,-18 -1,-52 -8,-75 -36,-19 -78,11 -93,44 -29,56 -36,119 -48,179 33,5 72,5 98,-18 2,-23 -25,-58 14,-69 46,-12 53,57 20,77 -37,32 -89,37 -135,31 -20,106 -36,219 -103,307 -41,57 -107,108 -181,99 -37,-3 -72,-38 -60,-77 10,-35 63,-50 85,-18 21,26 -5,48 -19,66 24,28 68,-11 84,-34 43,-64 52,-142 68,-216 9,-54 20,-109 36,-162 -37,-29 -70,-71 -122,-73 -36,-5 -67,40 -45,71 30,39 76,73 76,127 -1,66 -72,109 -133,101 -49,-5 -106,-31 -115,-84 -11,-38 39,-70 65,-38 23,24 -5,52 -5,77 25,36 94,28 103,-18 6,-32 -25,-51 -43,-73 -36,-35 -51,-96 -19,-139 36,-54 114,-65 169,-34 29,15 51,41 76,62 27,-77 69,-158 144,-197 44,-21 105,-26 142,12 7,8 11,19 11,30 0,0 0,0 0,0" />
</svg>
