<svg xmlns="http://www.w3.org/2000/svg" version="1.1" xmlns:xlink="http://www.w3.org/1999/xlink" xmlns:svgjs="http://svgjs.com/svgjs" width="1440" height="560" preserveAspectRatio="none" viewBox="0 0 1440 560"><g mask="url(&quot;#SvgjsMask2124&quot;)" fill="none"><rect width="1440" height="560" x="0" y="0" fill="url(#SvgjsLinearGradient2125)"></rect><path d="M0 0L297.06 0L0 239.75z" fill="rgba(255, 255, 255, .1)"></path><path d="M0 239.75L297.06 0L463.7 0L0 281.78z" fill="rgba(255, 255, 255, .075)"></path><path d="M0 281.78L463.7 0L692.03 0L0 454.46999999999997z" fill="rgba(255, 255, 255, .05)"></path><path d="M0 454.46999999999997L692.03 0L1135.12 0L0 489.22999999999996z" fill="rgba(255, 255, 255, .025)"></path><path d="M1440 560L1046.79 560L1440 338.64z" fill="rgba(0, 0, 0, .1)"></path><path d="M1440 338.64L1046.79 560L940.0699999999999 560L1440 229.04z" fill="rgba(0, 0, 0, .075)"></path><path d="M1440 229.03999999999996L940.07 560L426.06000000000006 560L1440 102.63999999999996z" fill="rgba(0, 0, 0, .05)"></path><path d="M1440 102.63999999999999L426.06000000000006 560L331.70000000000005 560L1440 79.40999999999998z" fill="rgba(0, 0, 0, .025)"></path></g><defs><mask id="SvgjsMask2124"><rect width="1440" height="560" fill="#ffffff"></rect></mask><linearGradient x1="50%" y1="0%" x2="50%" y2="100%" gradientUnits="userSpaceOnUse" id="SvgjsLinearGradient2125"><stop stop-color="rgba(38, 23, 0, 1)" offset="0.22"></stop><stop stop-color="rgba(82, 49, 0, 1)" offset="1"></stop></linearGradient></defs></svg>