<?xml version="1.0" encoding="UTF-8"?>
<svg viewBox="0 0 207.61 226.9" xmlns="http://www.w3.org/2000/svg">
 <g stroke-dasharray="1,2">
  <path d="m30.187 0.7294a25.601 25.729 0 1 1 -51.202 0 25.601 25.729 0 1 1 51.202 0z"/>
  <rect x="-28" y="29.397" width="62.713" height="147.55" rx="17.173" ry="17.173"/>
  <rect x="-27.48" y="140.2" width="140.94" height="37.686" rx="14.647" ry="14.647"/>
  <rect x="85.014" y="147.34" width="28.447" height="119.56" rx="11.112" ry="11.112"/>
  <rect x="48.913" y="100.56" width="186.84" height="20.792" rx="7.8287" ry="7.8287"/>
  <rect x="59.154" y="80.053" width="48.489" height="18.843" rx="8.3554" ry="7.8287"/>
  <rect transform="matrix(.91315 .90153 -.89703 .91774 -38.56 -29.946)" x="65.284" y="-.5667" width="64.65" height="15.152" rx="10.376" ry="6.9961"/>
  <rect x="109.61" y="80.702" width="36.852" height="17.544" rx="5.0508" ry="8.7718"/>
  <rect x="168.83" y="86.524" width="58.833" height="12.346" rx="1.5152" ry="6.1728"/>
  <rect x="187.68" y="69.63" width="23.275" height="22.412" rx="1.5152" ry="9.5964"/>
  <rect x="150.88" y="-1.4844" width="13.577" height="89.668" rx="1.5152" ry="9.5964"/>
 </g>
 <path d="m161.23 7.7197l75.88 20.792v40.935l-75.234 11.046-0.6465-72.774z" fill-rule="evenodd" stroke="#ffffff"/>
 <g stroke-dasharray="1,2">
  <rect x="-24.274" y="181.47" width="85.341" height="14.295" rx="1.5152" ry="7.1474"/>
  <rect x="10.691" y="188.62" width="14.87" height="77.322" rx="1.5152" ry="9.5964"/>
 </g>
</svg>
